Coordinates
version=1
nRows=13
nColumns=40
inDegrees=yes

Units are S.I. units (second, meters, Newtons, ...)
Angles are in degrees.

endheader
time	pelvis_tilt	pelvis_list	pelvis_rotation	pelvis_tx	pelvis_ty	pelvis_tz	hip_flexion_r	hip_adduction_r	hip_rotation_r	knee_angle_r	knee_angle_r_beta	ankle_angle_r	subtalar_angle_r	mtp_angle_r	hip_flexion_l	hip_adduction_l	hip_rotation_l	knee_angle_l	knee_angle_l_beta	ankle_angle_l	subtalar_angle_l	mtp_angle_l	lumbar_extension	lumbar_bending	lumbar_rotation	arm_flex_r	arm_add_r	arm_rot_r	elbow_flex_r	pro_sup_r	wrist_flex_r	wrist_dev_r	arm_flex_l	arm_add_l	arm_rot_l	elbow_flex_l	pro_sup_l	wrist_flex_l	wrist_dev_l
      0.73000000	      4.68751758	     -4.55692683	      0.15428195	     -0.85524043	      0.90694483	     -1.61252515	      0.02084090	      7.55155612	    -15.23053979	    -18.51588657	     -0.32316318	      8.75982847	      2.48686547	     -3.50474980	     14.97747567	      7.70102396	      4.80186694	    -58.51691466	     -1.02131283	     -0.15319804	      4.49775982	    -10.28121840	     -9.60224084	      7.28722379	      2.03097746	     11.51297508	    -11.28695003	     23.50265411	     16.62359195	     89.95437384	      0.00000000	      0.00000000	      5.02840506	      8.22360255	    -19.09794256	     17.30253968	     89.95437384	      0.00000000	      0.00000000
      0.74000000	      5.30351217	     -4.20131425	     -0.14460067	     -0.84639820	      0.90797406	     -1.61177100	     -1.51961335	      7.24236322	    -14.79052054	    -18.13318925	     -0.31648386	      9.26046453	      2.83260684	     -3.62502079	     14.95573784	      7.04836663	      4.92963885	    -56.83428863	     -0.99194546	      1.34722607	      4.64609351	    -10.87561593	    -10.30330217	      6.74399434	      2.58670056	     12.17530643	    -11.48097860	     23.62560318	     17.17953540	     89.95437384	      0.00000000	      0.00000000	      4.44906280	      8.33960050	    -18.48818225	     17.36652931	     89.95437384	      0.00000000	      0.00000000
      0.75000000	      5.10493977	     -4.22786597	     -0.32216373	     -0.83830999	      0.90749812	     -1.61096224	     -1.87346786	      7.28848668	    -14.81586270	    -18.16643209	     -0.31706405	      9.40683757	      2.83437461	     -3.61399497	     16.16271728	      6.90983884	      4.87880881	    -55.40930946	     -0.96707489	      1.73270948	      4.63382380	    -10.74926410	    -10.11526135	      6.65578700	      2.99005870	     12.82196041	    -11.65794662	     23.50598917	     17.65333453	     89.95437384	      0.00000000	      0.00000000	      3.85962327	      8.46846129	    -18.36657953	     17.30305088	     89.95437384	      0.00000000	      0.00000000
      0.76000000	      5.58947159	     -3.82971867	     -0.63084546	     -0.82968647	      0.90817434	     -1.61051653	     -3.16170981	      6.72899387	    -14.99337872	    -17.97957279	     -0.31380274	      9.83314654	      4.34884146	     -4.34020022	     16.16187430	      6.15853275	      5.03871651	    -53.33695200	     -0.93090543	      2.71078004	      6.01361107	    -12.66227851	    -10.69967088	      6.10459194	      3.45575955	     13.52344218	    -11.80548051	     23.33898999	     18.14948783	     89.95437384	      0.00000000	      0.00000000	      3.34125989	      8.37852246	    -16.77414099	     17.14472807	     89.95437384	      0.00000000	      0.00000000
      0.77000000	      5.53782880	     -3.72296157	     -0.89530194	     -0.82151622	      0.90782505	     -1.60984957	     -3.76228602	      6.64026294	    -14.69320664	    -17.87151285	     -0.31191674	     10.13178441	      4.34140288	     -4.40373069	     16.92168684	      5.87738113	      5.20004083	    -51.42950010	     -0.89761411	      3.52498898	      6.15454232	    -12.61154805	    -10.68870633	      5.87426774	      3.88446745	     14.18007727	    -11.96121803	     23.34522961	     18.57622685	     89.95437384	      0.00000000	      0.00000000	      2.81537645	      8.48391520	    -16.61044436	     17.03920483	     89.95437384	      0.00000000	      0.00000000
      0.78000000	      5.63833176	     -3.55332109	     -1.35021747	     -0.81325593	      0.90775783	     -1.60905453	     -4.52867201	      6.43416636	    -14.27053366	    -17.79525299	     -0.31058576	     10.44353565	      4.34967974	     -4.52780560	     17.28461163	      5.61127979	      5.72903496	    -49.12840897	     -0.85745249	      4.19179930	      6.74775042	    -12.54944237	    -10.90201740	      5.54647459	      4.53744805	     14.77116933	    -12.20715901	     23.38728701	     19.16375189	     89.95437384	      0.00000000	      0.00000000	      2.27438955	      8.56043781	    -16.18552738	     17.05490309	     89.95437384	      0.00000000	      0.00000000
      0.79000000	      5.35436913	     -3.74210592	     -1.37965546	     -0.80511863	      0.90679889	     -1.60866580	     -4.80041844	      6.63601965	    -14.47154590	    -17.83754646	     -0.31132392	     10.56805515	      4.25289977	     -4.51576967	     18.32869497	      5.75170491	      5.93730908	    -47.15947834	     -0.82308817	      4.46297383	      6.71200846	    -12.34875900	    -10.60740518	      5.69736855	      4.71450328	     15.37784152	    -12.35585511	     23.29559508	     19.59210830	     89.95437384	      0.00000000	      0.00000000	      1.68567610	      8.63361824	    -16.12178356	     16.99425352	     89.95437384	      0.00000000	      0.00000000
      0.80000000	      5.74828367	     -3.38781919	     -1.80558033	     -0.79657644	      0.90717509	     -1.60826579	     -6.03854666	      6.20378989	    -13.97323387	    -17.51444086	     -0.30568466	     10.95697104	      4.55505008	     -4.69847832	     18.00977433	      5.14379728	      6.34051426	    -44.33519556	     -0.77379514	      5.17829908	      7.03241683	    -12.29194383	    -11.12473047	      5.19333515	      5.20668911	     16.03023731	    -12.50070487	     23.24930090	     20.10539468	     89.95437384	      0.00000000	      0.00000000	      1.17003706	      8.65460508	    -15.51448309	     16.95893212	     89.95437384	      0.00000000	      0.00000000
      0.81000000	      5.41761359	     -3.64841328	     -1.85446887	     -0.78856352	      0.90602065	     -1.60804238	     -6.26615630	      6.46059087	    -14.23641685	    -17.51393738	     -0.30567587	     11.05487052	      4.51162644	     -4.69269503	     18.99915171	      5.36963053	      6.64330193	    -42.24284370	     -0.73727671	      5.27006927	      6.99187961	    -12.07738564	    -10.82053620	      5.44819208	      5.37113127	     16.64049335	    -12.65620056	     23.15334487	     20.51161560	     89.95437384	      0.00000000	      0.00000000	      0.61257819	      8.69024368	    -15.42141365	     16.92832214	     89.95437384	      0.00000000	      0.00000000
      0.82000000	      5.96465511	     -3.32422373	     -2.29706783	     -0.78001539	      0.90663276	     -1.60772654	     -7.64449762	      5.93891721	    -14.12111065	    -17.22215313	     -0.30058328	     11.22596352	      5.29191334	     -4.96913673	     18.30189686	      4.83482192	      7.25072760	    -39.08212799	     -0.68211181	      5.11441998	      7.05493416	    -11.80727785	    -11.54260977	      4.97232429	      5.88358967	     17.26854715	    -12.82206238	     23.17189920	     21.04484356	     89.95437384	      0.00000000	      0.00000000	      0.13810480	      8.63224019	    -14.41549519	     16.93986944	     89.95437384	      0.00000000	      0.00000000
      0.83000000	      5.61310859	     -3.41315546	     -2.41975833	     -0.77207584	      0.90555158	     -1.60763659	     -7.83476488	      5.98573582	    -14.05421159	    -17.23670766	     -0.30083730	     11.32072182	      5.47767535	     -5.05942171	     18.97941421	      4.78346066	      7.56989619	    -36.51769445	     -0.63735400	      4.83232994	      6.84337531	    -11.52425440	    -11.26881714	      5.04152435	      5.99162860	     17.83396707	    -12.93270358	     23.13443272	     21.55835498	     89.95437384	      0.00000000	      0.00000000	     -0.46436410	      8.64970592	    -14.08059562	     16.98847063	     89.95437384	      0.00000000	      0.00000000
      0.84000000	      5.46495214	     -3.43320611	     -2.57455528	     -0.76401718	      0.90478901	     -1.60748248	     -8.25415360	      5.92633495	    -14.05334298	    -17.25158014	     -0.30109687	     11.54371375	      5.72676108	     -5.20988352	     19.30726904	      4.69675850	      8.15744950	    -33.83189618	     -0.59047798	      4.17383600	      6.47898111	    -11.19428197	    -11.24140245	      5.00619278	      6.22896803	     18.36360414	    -13.07441118	     23.15196969	     22.03956988	     89.95437384	      0.00000000	      0.00000000	     -0.92592123	      8.63591837	    -13.61450166	     16.96096151	     89.95437384	      0.00000000	      0.00000000
      0.85000000	      5.40865685	     -3.39464794	     -2.82075041	     -0.75577383	      0.90413469	     -1.60750268	     -8.75632255	      5.73135782	    -14.05304591	    -17.32857228	     -0.30244064	     11.68153887	      6.13859207	     -5.48171226	     19.39075346	      4.57852005	      9.04496933	    -31.11157213	     -0.54299937	      3.43917234	      5.95112683	    -10.82869624	    -11.29485320	      4.92017472	      6.35621097	     18.93988000	    -13.15077341	     23.27002186	     22.51780502	     89.95437384	      0.00000000	      0.00000000	     -1.47247846	      8.54291589	    -12.86693791	     16.92262101	     89.95437384	      0.00000000	      0.00000000
